<svg width="11" height="23" viewBox="0 0 11 23" fill="none" xmlns="http://www.w3.org/2000/svg">
<path d="M9.5 5.22727V17.25C9.5 18.3591 9.07857 19.4227 8.32843 20.207C7.57828 20.9912 6.56087 21.4318 5.5 21.4318C4.43913 21.4318 3.42172 20.9912 2.67157 20.207C1.92143 19.4227 1.5 18.3591 1.5 17.25V4.18182C1.5 3.48864 1.76339 2.82385 2.23223 2.3337C2.70107 1.84355 3.33696 1.56818 4 1.56818C4.66304 1.56818 5.29893 1.84355 5.76777 2.3337C6.23661 2.82385 6.5 3.48864 6.5 4.18182V15.1591C6.5 15.4364 6.39464 15.7023 6.20711 15.8983C6.01957 16.0944 5.76522 16.2045 5.5 16.2045C5.23478 16.2045 4.98043 16.0944 4.79289 15.8983C4.60536 15.7023 4.5 15.4364 4.5 15.1591V5.22727H3V15.1591C3 15.8523 3.26339 16.5171 3.73223 17.0072C4.20107 17.4974 4.83696 17.7727 5.5 17.7727C6.16304 17.7727 6.79893 17.4974 7.26777 17.0072C7.73661 16.5171 8 15.8523 8 15.1591V4.18182C8 3.07273 7.57857 2.00907 6.82843 1.22483C6.07828 0.440583 5.06087 0 4 0C2.93913 0 1.92172 0.440583 1.17157 1.22483C0.421427 2.00907 0 3.07273 0 4.18182V17.25C0 18.775 0.579462 20.2375 1.61091 21.3159C2.64236 22.3942 4.04131 23 5.5 23C6.95869 23 8.35764 22.3942 9.38909 21.3159C10.4205 20.2375 11 18.775 11 17.25V5.22727H9.5Z" fill="#C6C6C6"/>
</svg>
